<svg xmlns="http://www.w3.org/2000/svg" xmlns:v="https://svgstorm.com"
viewBox = "0 0 1600 1600"
width="1600"
height="1600">
<g fill="None" fill-opacity="0.0" stroke="#F7FDFD" stroke-opacity="1.00" stroke-width="0.3"><path d="
M 0.00 1600.00 
L 1600.00 1600.00
L 1600.00 0.00
L 0.00 0.00
L 0.00 1600.00
M 1293.00 624.00 
C 1295.76 622.58 1297.27 619.35 1300.00 618.00
C 1300.00 628.67 1300.00 639.33 1300.00 650.00
C 1299.90 660.07 1300.64 670.97 1298.00 680.00
C 1287.61 993.68 1064.40 1258.69 801.00 1413.00
C 619.06 1302.56 448.07 1141.91 371.00 941.00
C 335.24 854.44 315.06 761.16 312.00 665.00
C 310.33 636.07 310.33 603.86 312.00 575.00
C 318.08 572.32 325.49 571.36 332.00 569.00
C 443.16 538.18 525.90 453.33 596.00 363.00
C 616.07 367.00 635.77 372.50 656.00 376.00
C 697.71 325.16 742.71 272.50 800.08 240.08 C 859.56 305.37 909.23 379.86 966.00 448.00
C 996.90 432.95 1026.77 415.77 1056.75 398.75 C 1108.33 432.80 1140.92 504.32 1203.08 529.92 C 1233.39 548.69 1265.85 564.24 1300.00 574.00
C 1296.71 590.83 1308.57 611.93 1293.00 624.00 Z"/>
</g>
<g fill="None" fill-opacity="0.0" stroke="#B3E0F9" stroke-opacity="1.00" stroke-width="0.3"><path d="
M 332.00 569.00 
C 375.97 612.32 421.12 654.76 466.00 697.00
C 501.27 665.18 537.10 633.22 573.00 602.00
C 598.05 625.45 623.90 648.70 649.70 671.30 C 701.43 629.78 748.88 575.95 800.00 531.00
C 858.12 588.14 917.36 649.33 977.00 704.00
C 992.56 691.13 1008.05 677.50 1024.00 665.00
C 1060.92 696.25 1094.65 732.88 1132.00 763.00
C 1144.49 751.73 1157.18 739.21 1171.00 730.00
C 1192.56 757.56 1212.71 701.68 1232.75 689.75 C 1253.02 667.88 1273.69 646.70 1293.00 624.00
C 1308.57 611.93 1296.71 590.83 1300.00 574.00
C 1265.85 564.24 1233.39 548.69 1203.08 529.92 C 1140.92 504.32 1108.33 432.80 1056.75 398.75 C 1026.77 415.77 996.90 432.95 966.00 448.00
C 909.23 379.86 859.56 305.37 800.08 240.08 C 742.71 272.50 697.71 325.16 656.00 376.00
C 635.77 372.50 616.07 367.00 596.00 363.00
C 525.90 453.33 443.16 538.18 332.00 569.00
M 993.00 435.00 
C 1007.29 466.04 1011.38 502.26 1034.00 529.00
C 1009.90 504.70 985.57 477.27 968.00 448.00
C 976.42 444.30 984.87 439.71 993.00 435.00 Z"/>
</g>
<g fill="None" fill-opacity="0.0" stroke="#39A6F9" stroke-opacity="1.00" stroke-width="0.3"><path d="
M 993.00 435.00 
C 984.87 439.71 976.42 444.30 968.00 448.00
C 985.57 477.27 1009.90 504.70 1034.00 529.00
C 1011.38 502.26 1007.29 466.04 993.00 435.00 Z"/>
</g>
<g fill="None" fill-opacity="0.0" stroke="#39A6F9" stroke-opacity="1.00" stroke-width="0.3"><path d="
M 332.00 569.00 
C 325.49 571.36 318.08 572.32 312.00 575.00
C 312.00 605.00 312.00 635.00 312.00 665.00
C 315.06 761.16 335.24 854.44 371.00 941.00
C 425.41 882.32 483.73 825.61 539.75 767.75 C 557.94 751.10 578.58 712.27 594.77 751.23 C 663.00 834.85 730.00 920.92 799.00 1003.00
C 863.39 908.64 928.53 814.37 994.00 721.00
C 989.34 714.28 981.56 710.77 977.00 704.00
C 917.36 649.33 858.12 588.14 800.00 531.00
C 748.88 575.95 701.43 629.78 649.70 671.30 C 623.90 648.70 598.05 625.45 573.00 602.00
C 537.10 633.22 501.27 665.18 466.00 697.00
C 421.12 654.76 375.97 612.32 332.00 569.00 Z"/>
</g>
<g fill="None" fill-opacity="0.0" stroke="#B3E0F9" stroke-opacity="1.00" stroke-width="0.3"><path d="
M 312.00 665.00 
C 312.00 635.00 312.00 605.00 312.00 575.00
C 310.33 603.86 310.33 636.07 312.00 665.00 Z"/>
</g>
<g fill="None" fill-opacity="0.0" stroke="#0D6AC6" stroke-opacity="1.00" stroke-width="0.3"><path d="
M 1293.00 624.00 
C 1273.69 646.70 1253.02 667.88 1232.75 689.75 C 1212.71 701.68 1192.56 757.56 1171.00 730.00
C 1157.18 739.21 1144.49 751.73 1132.00 763.00
C 1094.65 732.88 1060.92 696.25 1024.00 665.00
C 1008.05 677.50 992.56 691.13 977.00 704.00
C 981.56 710.77 989.34 714.28 994.00 721.00
C 928.53 814.37 863.39 908.64 799.00 1003.00
C 730.00 920.92 663.00 834.85 594.77 751.23 C 578.58 712.27 557.94 751.10 539.75 767.75 C 483.73 825.61 425.41 882.32 371.00 941.00
C 448.07 1141.91 619.06 1302.56 801.00 1413.00
C 1064.40 1258.69 1287.61 993.68 1298.00 680.00
C 1298.87 670.15 1298.28 659.24 1300.00 650.00
C 1300.00 639.33 1300.00 628.67 1300.00 618.00
C 1297.27 619.35 1295.76 622.58 1293.00 624.00 Z"/>
</g>
<g fill="None" fill-opacity="0.0" stroke="#39A6F9" stroke-opacity="1.00" stroke-width="0.3"><path d="
M 1298.00 680.00 
C 1300.64 670.97 1299.90 660.07 1300.00 650.00
C 1298.28 659.24 1298.87 670.15 1298.00 680.00 Z"/>
</g>
<g fill="none" fill-opacity="1.00" stroke="None">
<path d="
M 0.00 1600.00 
L 1600.00 1600.00
L 1600.00 0.00
L 0.00 0.00
L 0.00 1600.00
M 1293.00 624.00 
C 1295.76 622.58 1297.27 619.35 1300.00 618.00
C 1300.00 628.67 1300.00 639.33 1300.00 650.00
C 1299.90 660.07 1300.64 670.97 1298.00 680.00
C 1287.61 993.68 1064.40 1258.69 801.00 1413.00
C 619.06 1302.56 448.07 1141.91 371.00 941.00
C 335.24 854.44 315.06 761.16 312.00 665.00
C 310.33 636.07 310.33 603.86 312.00 575.00
C 318.08 572.32 325.49 571.36 332.00 569.00
C 443.16 538.18 525.90 453.33 596.00 363.00
C 616.07 367.00 635.77 372.50 656.00 376.00
C 697.71 325.16 742.71 272.50 800.08 240.08 C 859.56 305.37 909.23 379.86 966.00 448.00
C 996.90 432.95 1026.77 415.77 1056.75 398.75 C 1108.33 432.80 1140.92 504.32 1203.08 529.92 C 1233.39 548.69 1265.85 564.24 1300.00 574.00
C 1296.71 590.83 1308.57 611.93 1293.00 624.00 Z"/>
</g>
<g fill="#B3E0F9" fill-opacity="1.00" stroke="None">
<path d="
M 332.00 569.00 
C 375.97 612.32 421.12 654.76 466.00 697.00
C 501.27 665.18 537.10 633.22 573.00 602.00
C 598.05 625.45 623.90 648.70 649.70 671.30 C 701.43 629.78 748.88 575.95 800.00 531.00
C 858.12 588.14 917.36 649.33 977.00 704.00
C 992.56 691.13 1008.05 677.50 1024.00 665.00
C 1060.92 696.25 1094.65 732.88 1132.00 763.00
C 1144.49 751.73 1157.18 739.21 1171.00 730.00
C 1192.56 757.56 1212.71 701.68 1232.75 689.75 C 1253.02 667.88 1273.69 646.70 1293.00 624.00
C 1308.57 611.93 1296.71 590.83 1300.00 574.00
C 1265.85 564.24 1233.39 548.69 1203.08 529.92 C 1140.92 504.32 1108.33 432.80 1056.75 398.75 C 1026.77 415.77 996.90 432.95 966.00 448.00
C 909.23 379.86 859.56 305.37 800.08 240.08 C 742.71 272.50 697.71 325.16 656.00 376.00
C 635.77 372.50 616.07 367.00 596.00 363.00
C 525.90 453.33 443.16 538.18 332.00 569.00
M 993.00 435.00 
C 1007.29 466.04 1011.38 502.26 1034.00 529.00
C 1009.90 504.70 985.57 477.27 968.00 448.00
C 976.42 444.30 984.87 439.71 993.00 435.00 Z"/>
</g>
<g fill="#39A6F9" fill-opacity="1.00" stroke="None">
<path d="
M 993.00 435.00 
C 984.87 439.71 976.42 444.30 968.00 448.00
C 985.57 477.27 1009.90 504.70 1034.00 529.00
C 1011.38 502.26 1007.29 466.04 993.00 435.00 Z"/>
</g>
<g fill="#39A6F9" fill-opacity="1.00" stroke="None">
<path d="
M 332.00 569.00 
C 325.49 571.36 318.08 572.32 312.00 575.00
C 312.00 605.00 312.00 635.00 312.00 665.00
C 315.06 761.16 335.24 854.44 371.00 941.00
C 425.41 882.32 483.73 825.61 539.75 767.75 C 557.94 751.10 578.58 712.27 594.77 751.23 C 663.00 834.85 730.00 920.92 799.00 1003.00
C 863.39 908.64 928.53 814.37 994.00 721.00
C 989.34 714.28 981.56 710.77 977.00 704.00
C 917.36 649.33 858.12 588.14 800.00 531.00
C 748.88 575.95 701.43 629.78 649.70 671.30 C 623.90 648.70 598.05 625.45 573.00 602.00
C 537.10 633.22 501.27 665.18 466.00 697.00
C 421.12 654.76 375.97 612.32 332.00 569.00 Z"/>
</g>
<g fill="#B3E0F9" fill-opacity="1.00" stroke="None">
<path d="
M 312.00 665.00 
C 312.00 635.00 312.00 605.00 312.00 575.00
C 310.33 603.86 310.33 636.07 312.00 665.00 Z"/>
</g>
<g fill="#0D6AC6" fill-opacity="1.00" stroke="None">
<path d="
M 1293.00 624.00 
C 1273.69 646.70 1253.02 667.88 1232.75 689.75 C 1212.71 701.68 1192.56 757.56 1171.00 730.00
C 1157.18 739.21 1144.49 751.73 1132.00 763.00
C 1094.65 732.88 1060.92 696.25 1024.00 665.00
C 1008.05 677.50 992.56 691.13 977.00 704.00
C 981.56 710.77 989.34 714.28 994.00 721.00
C 928.53 814.37 863.39 908.64 799.00 1003.00
C 730.00 920.92 663.00 834.85 594.77 751.23 C 578.58 712.27 557.94 751.10 539.75 767.75 C 483.73 825.61 425.41 882.32 371.00 941.00
C 448.07 1141.91 619.06 1302.56 801.00 1413.00
C 1064.40 1258.69 1287.61 993.68 1298.00 680.00
C 1298.87 670.15 1298.28 659.24 1300.00 650.00
C 1300.00 639.33 1300.00 628.67 1300.00 618.00
C 1297.27 619.35 1295.76 622.58 1293.00 624.00 Z"/>
</g>
<g fill="#39A6F9" fill-opacity="1.00" stroke="None">
<path d="
M 1298.00 680.00 
C 1300.64 670.97 1299.90 660.07 1300.00 650.00
C 1298.28 659.24 1298.87 670.15 1298.00 680.00 Z"/>
</g>
</svg>
